ffmpeg started on 2026-01-19 at 12:16:25
Report written to "D:\Convert\FFMetrics\reports\psnr_report-6.txt"
Log level: 32
Command line:
ffmpeg -hide_banner -nostdin -r 24000/1001 -i "F:\\Convert\\files\\[DC] Make Heroine ga Oosugiru - 07_Telegram_HEVC(176).mkv" -r 24000/1001 -i "F:\\Convert\\files\\[DC] Make Heroine ga Oosugiru - 07_Telegram.mp4" -lavfi "[0:v]settb=AVTB,setpts=PTS-STARTPTS,format=pix_fmts=yuv420p10le,fps=24000/1001,scale=1920:1080:flags=lanczos:param0=3:out_range=limited:out_color_matrix=bt709:out_chroma_loc=left,setsar=1/1,setdar=(1920/1080)*(1/1),colorspace=format=yuv420p10:range=tv:primaries=bt709:trc=bt709:space=bt709:fast=0[main];[1:v]settb=AVTB,setpts=PTS-STARTPTS,format=pix_fmts=yuv420p,fps=24000/1001,scale=1920:1080:flags=lanczos:param0=3:out_range=limited:out_color_matrix=bt709:out_chroma_loc=left,setsar=1.000,setdar=1.778,colorspace=format=yuv420p:range=tv:primaries=bt709:trc=bt709:space=bt709:fast=0[ref];[main][ref]psnr=eof_action=endall:stats_file='D\\:/Convert/FFMetrics/logs/psnr_logfile-6.txt'" -f null -
Input #0, matroska,webm, from 'F:\Convert\files\[DC] Make Heroine ga Oosugiru - 07_Telegram_HEVC(176).mkv':
  Metadata:
    COMPATIBLE_BRANDS: isomiso2avc1mp41
    MAJOR_BRAND     : isom
    MINOR_VERSION   : 512
    ENCODER         : Lavf61.7.100
  Duration: 00:24:06.79, start: -0.021000, bitrate: 960 kb/s
  Stream #0:0: Video: hevc (Main 10), yuv420p10le(tv, bt709, progressive), 1920x1080 [SAR 1:1 DAR 16:9], 23.98 fps, 23.98 tbr, 1k tbn (default)
      Metadata:
        HANDLER_NAME    : VideoHandler
        VENDOR_ID       : [0][0][0][0]
        ENCODER         : Lavc61.19.100 libx265
        BPS             : 763836
        DURATION        : 00:24:06.569708333
        NUMBER_OF_FRAMES: 34683
        NUMBER_OF_BYTES : 138117743
        _STATISTICS_WRITING_APP: mkvpropedit v94.0 ('Initiate') 64-bit
        _STATISTICS_WRITING_DATE_UTC: 2026-01-19 07:59:13
        _STATISTICS_TAGS: BPS DURATION NUMBER_OF_FRAMES NUMBER_OF_BYTES
  Stream #0:1: Audio: aac (LC), 48000 Hz, stereo, fltp (default)
      Metadata:
        HANDLER_NAME    : SoundHandler
        VENDOR_ID       : [0][0][0][0]
        ENCODER         : Lavc61.19.100 aac
        BPS             : 193194
        DURATION        : 00:24:06.784000000
        NUMBER_OF_FRAMES: 67819
        NUMBER_OF_BYTES : 34938755
        _STATISTICS_WRITING_APP: mkvpropedit v94.0 ('Initiate') 64-bit
        _STATISTICS_WRITING_DATE_UTC: 2026-01-19 07:59:13
        _STATISTICS_TAGS: BPS DURATION NUMBER_OF_FRAMES NUMBER_OF_BYTES
Input #1, mov,mp4,m4a,3gp,3g2,mj2, from 'F:\Convert\files\[DC] Make Heroine ga Oosugiru - 07_Telegram.mp4':
  Metadata:
    major_brand     : isom
    minor_version   : 512
    compatible_brands: isomiso2avc1mp41
    encoder         : Lavf60.16.100
  Duration: 00:24:06.74, start: 0.000000, bitrate: 3764 kb/s
  Stream #1:0[0x1](und): Video: h264 (High) (avc1 / 0x31637661), yuv420p(tv, bt709, progressive), 1920x1080 [SAR 1:1 DAR 16:9], 3616 kb/s, 23.98 fps, 23.98 tbr, 24k tbn (default)
      Metadata:
        handler_name    : VideoHandler
        vendor_id       : [0][0][0][0]
        encoder         : Lavc60.31.102 h264_qsv
  Stream #1:1[0x2](und): Audio: aac (HE-AACv2) (mp4a / 0x6134706D), 48000 Hz, stereo, fltp, 144 kb/s (default)
      Metadata:
        handler_name    : SoundHandler
        vendor_id       : [0][0][0][0]
Stream mapping:
  Stream #0:0 (hevc) -> settb:default
  Stream #1:0 (h264) -> settb:default
  psnr:default -> Stream #0:0 (wrapped_avframe)
  Stream #0:1 -> #0:1 (aac (native) -> pcm_s16le (native))
Output #0, null, to 'pipe:':
  Metadata:
    COMPATIBLE_BRANDS: isomiso2avc1mp41
    MAJOR_BRAND     : isom
    MINOR_VERSION   : 512
    encoder         : Lavf61.7.100
  Stream #0:0: Video: wrapped_avframe, yuv420p10le(tv, bt709, progressive), 1920x1080 [SAR 1:1 DAR 16:9], q=2-31, 200 kb/s, 23.98 fps, 23.98 tbn
      Metadata:
        encoder         : Lavc61.19.100 wrapped_avframe
  Stream #0:1: Audio: pcm_s16le, 48000 Hz, stereo, s16, 1536 kb/s (default)
      Metadata:
        HANDLER_NAME    : SoundHandler
        VENDOR_ID       : [0][0][0][0]
        _STATISTICS_TAGS: BPS DURATION NUMBER_OF_FRAMES NUMBER_OF_BYTES
        BPS             : 193194
        DURATION        : 00:24:06.784000000
        NUMBER_OF_FRAMES: 67819
        NUMBER_OF_BYTES : 34938755
        _STATISTICS_WRITING_APP: mkvpropedit v94.0 ('Initiate') 64-bit
        _STATISTICS_WRITING_DATE_UTC: 2026-01-19 07:59:13
        encoder         : Lavc61.19.100 pcm_s16le
frame=  126 fps=0.0 q=-0.0 size=N/A time=00:00:05.25 bitrate=N/A speed=10.3x    frame=  319 fps=312 q=-0.0 size=N/A time=00:00:13.30 bitrate=N/A speed=  13x    frame=  522 fps=337 q=-0.0 size=N/A time=00:00:21.77 bitrate=N/A speed=  14x    frame=  718 fps=348 q=-0.0 size=N/A time=00:00:29.94 bitrate=N/A speed=14.5x    frame=  894 fps=347 q=-0.0 size=N/A time=00:00:37.28 bitrate=N/A speed=14.5x    frame= 1040 fps=337 q=-0.0 size=N/A time=00:00:43.37 bitrate=N/A speed=  14x    frame= 1203 fps=334 q=-0.0 size=N/A time=00:00:50.17 bitrate=N/A speed=13.9x    frame= 1369 fps=332 q=-0.0 size=N/A time=00:00:57.09 bitrate=N/A speed=13.8x    frame= 1516 fps=327 q=-0.0 size=N/A time=00:01:03.22 bitrate=N/A speed=13.6x    frame= 1660 fps=322 q=-0.0 size=N/A time=00:01:09.23 bitrate=N/A speed=13.4x    frame= 1829 fps=322 q=-0.0 size=N/A time=00:01:16.28 bitrate=N/A speed=13.4x    frame= 1993 fps=322 q=-0.0 size=N/A time=00:01:23.12 bitrate=N/A speed=13.4x    frame= 2098 fps=313 q=-0.0 size=N/A time=00:01:27.50 bitrate=N/A speed=13.1x    frame= 2248 fps=311 q=-0.0 size=N/A time=00:01:33.76 bitrate=N/A speed=  13x    frame= 2394 fps=309 q=-0.0 size=N/A time=00:01:39.84 bitrate=N/A speed=12.9x    frame= 2524 fps=306 q=-0.0 size=N/A time=00:01:45.27 bitrate=N/A speed=12.7x    frame= 2680 fps=305 q=-0.0 size=N/A time=00:01:51.77 bitrate=N/A speed=12.7x    frame= 2856 fps=307 q=-0.0 size=N/A time=00:01:59.11 bitrate=N/A speed=12.8x    frame= 3032 fps=309 q=-0.0 size=N/A time=00:02:06.45 bitrate=N/A speed=12.9x    frame= 3231 fps=313 q=-0.0 size=N/A time=00:02:14.75 bitrate=N/A speed=  13x    frame= 3425 fps=316 q=-0.0 size=N/A time=00:02:22.85 bitrate=N/A speed=13.2x    frame= 3611 fps=318 q=-0.0 size=N/A time=00:02:30.60 bitrate=N/A speed=13.3x    frame= 3815 fps=321 q=-0.0 size=N/A time=00:02:39.11 bitrate=N/A speed=13.4x    frame= 4008 fps=323 q=-0.0 size=N/A time=00:02:47.16 bitrate=N/A speed=13.5x    frame= 4198 fps=325 q=-0.0 size=N/A time=00:02:55.09 bitrate=N/A speed=13.6x    frame= 4390 fps=327 q=-0.0 size=N/A time=00:03:03.09 bitrate=N/A speed=13.6x    frame= 4577 fps=329 q=-0.0 size=N/A time=00:03:10.89 bitrate=N/A speed=13.7x    frame= 4768 fps=330 q=-0.0 size=N/A time=00:03:18.86 bitrate=N/A speed=13.8x    frame= 4947 fps=331 q=-0.0 size=N/A time=00:03:26.33 bitrate=N/A speed=13.8x    frame= 5135 fps=332 q=-0.0 size=N/A time=00:03:34.17 bitrate=N/A speed=13.8x    frame= 5315 fps=332 q=-0.0 size=N/A time=00:03:41.67 bitrate=N/A speed=13.9x    frame= 5496 fps=333 q=-0.0 size=N/A time=00:03:49.22 bitrate=N/A speed=13.9x    frame= 5691 fps=334 q=-0.0 size=N/A time=00:03:57.36 bitrate=N/A speed=13.9x    frame= 5878 fps=335 q=-0.0 size=N/A time=00:04:05.16 bitrate=N/A speed=  14x    frame= 6078 fps=336 q=-0.0 size=N/A time=00:04:13.50 bitrate=N/A speed=  14x    frame= 6269 fps=337 q=-0.0 size=N/A time=00:04:21.46 bitrate=N/A speed=14.1x    frame= 6474 fps=339 q=-0.0 size=N/A time=00:04:30.01 bitrate=N/A speed=14.1x    frame= 6670 fps=340 q=-0.0 size=N/A time=00:04:38.19 bitrate=N/A speed=14.2x    frame= 6872 fps=341 q=-0.0 size=N/A time=00:04:46.61 bitrate=N/A speed=14.2x    frame= 7062 fps=342 q=-0.0 size=N/A time=00:04:54.54 bitrate=N/A speed=14.3x    frame= 7260 fps=343 q=-0.0 size=N/A time=00:05:02.80 bitrate=N/A speed=14.3x    frame= 7458 fps=344 q=-0.0 size=N/A time=00:05:11.06 bitrate=N/A speed=14.4x    frame= 7644 fps=345 q=-0.0 size=N/A time=00:05:18.81 bitrate=N/A speed=14.4x    frame= 7824 fps=345 q=-0.0 size=N/A time=00:05:26.32 bitrate=N/A speed=14.4x    frame= 8011 fps=345 q=-0.0 size=N/A time=00:05:34.12 bitrate=N/A speed=14.4x    frame= 8206 fps=346 q=-0.0 size=N/A time=00:05:42.25 bitrate=N/A speed=14.4x    frame= 8390 fps=346 q=-0.0 size=N/A time=00:05:49.93 bitrate=N/A speed=14.4x    frame= 8573 fps=346 q=-0.0 size=N/A time=00:05:57.56 bitrate=N/A speed=14.4x    frame= 8759 fps=346 q=-0.0 size=N/A time=00:06:05.32 bitrate=N/A speed=14.4x    frame= 8950 fps=347 q=-0.0 size=N/A time=00:06:13.28 bitrate=N/A speed=14.5x    frame= 9143 fps=347 q=-0.0 size=N/A time=00:06:21.33 bitrate=N/A speed=14.5x    frame= 9344 fps=348 q=-0.0 size=N/A time=00:06:29.72 bitrate=N/A speed=14.5x    frame= 9528 fps=348 q=-0.0 size=N/A time=00:06:37.39 bitrate=N/A speed=14.5x    frame= 9720 fps=349 q=-0.0 size=N/A time=00:06:45.40 bitrate=N/A speed=14.5x    frame= 9912 fps=349 q=-0.0 size=N/A time=00:06:53.41 bitrate=N/A speed=14.6x    frame=10112 fps=350 q=-0.0 size=N/A time=00:07:01.75 bitrate=N/A speed=14.6x    frame=10300 fps=350 q=-0.0 size=N/A time=00:07:09.59 bitrate=N/A speed=14.6x    frame=10491 fps=350 q=-0.0 size=N/A time=00:07:17.56 bitrate=N/A speed=14.6x    frame=10688 fps=351 q=-0.0 size=N/A time=00:07:25.77 bitrate=N/A speed=14.6x    frame=10882 fps=351 q=-0.0 size=N/A time=00:07:33.87 bitrate=N/A speed=14.6x    frame=11069 fps=351 q=-0.0 size=N/A time=00:07:41.66 bitrate=N/A speed=14.6x    frame=11259 fps=352 q=-0.0 size=N/A time=00:07:49.59 bitrate=N/A speed=14.7x    frame=11449 fps=352 q=-0.0 size=N/A time=00:07:57.51 bitrate=N/A speed=14.7x    frame=11652 fps=352 q=-0.0 size=N/A time=00:08:05.98 bitrate=N/A speed=14.7x    frame=11842 fps=353 q=-0.0 size=N/A time=00:08:13.91 bitrate=N/A speed=14.7x    frame=12039 fps=353 q=-0.0 size=N/A time=00:08:22.12 bitrate=N/A speed=14.7x    frame=12236 fps=353 q=-0.0 size=N/A time=00:08:30.34 bitrate=N/A speed=14.7x    frame=12433 fps=354 q=-0.0 size=N/A time=00:08:38.55 bitrate=N/A speed=14.8x    frame=12621 fps=354 q=-0.0 size=N/A time=00:08:46.40 bitrate=N/A speed=14.8x    frame=12819 fps=354 q=-0.0 size=N/A time=00:08:54.65 bitrate=N/A speed=14.8x    frame=13009 fps=355 q=-0.0 size=N/A time=00:09:02.58 bitrate=N/A speed=14.8x    frame=13197 fps=355 q=-0.0 size=N/A time=00:09:10.42 bitrate=N/A speed=14.8x    frame=13387 fps=355 q=-0.0 size=N/A time=00:09:18.34 bitrate=N/A speed=14.8x    frame=13575 fps=355 q=-0.0 size=N/A time=00:09:26.19 bitrate=N/A speed=14.8x    frame=13761 fps=355 q=-0.0 size=N/A time=00:09:33.94 bitrate=N/A speed=14.8x    frame=13951 fps=355 q=-0.0 size=N/A time=00:09:41.87 bitrate=N/A speed=14.8x    frame=14125 fps=355 q=-0.0 size=N/A time=00:09:49.13 bitrate=N/A speed=14.8x    frame=14304 fps=355 q=-0.0 size=N/A time=00:09:56.59 bitrate=N/A speed=14.8x    frame=14491 fps=355 q=-0.0 size=N/A time=00:10:04.39 bitrate=N/A speed=14.8x    frame=14683 fps=355 q=-0.0 size=N/A time=00:10:12.40 bitrate=N/A speed=14.8x    frame=14877 fps=355 q=-0.0 size=N/A time=00:10:20.49 bitrate=N/A speed=14.8x    frame=15065 fps=355 q=-0.0 size=N/A time=00:10:28.33 bitrate=N/A speed=14.8x    frame=15225 fps=355 q=-0.0 size=N/A time=00:10:35.00 bitrate=N/A speed=14.8x    frame=15421 fps=355 q=-0.0 size=N/A time=00:10:43.18 bitrate=N/A speed=14.8x    frame=15619 fps=355 q=-0.0 size=N/A time=00:10:51.44 bitrate=N/A speed=14.8x    frame=15801 fps=355 q=-0.0 size=N/A time=00:10:59.03 bitrate=N/A speed=14.8x    frame=15993 fps=356 q=-0.0 size=N/A time=00:11:07.04 bitrate=N/A speed=14.8x    frame=16190 fps=356 q=-0.0 size=N/A time=00:11:15.25 bitrate=N/A speed=14.8x    frame=16386 fps=356 q=-0.0 size=N/A time=00:11:23.43 bitrate=N/A speed=14.9x    frame=16551 fps=356 q=-0.0 size=N/A time=00:11:30.31 bitrate=N/A speed=14.8x    frame=16738 fps=356 q=-0.0 size=N/A time=00:11:38.11 bitrate=N/A speed=14.8x    frame=16929 fps=356 q=-0.0 size=N/A time=00:11:46.08 bitrate=N/A speed=14.9x    frame=17129 fps=356 q=-0.0 size=N/A time=00:11:54.42 bitrate=N/A speed=14.9x    frame=17318 fps=357 q=-0.0 size=N/A time=00:12:02.30 bitrate=N/A speed=14.9x    frame=17511 fps=357 q=-0.0 size=N/A time=00:12:10.35 bitrate=N/A speed=14.9x    frame=17700 fps=357 q=-0.0 size=N/A time=00:12:18.23 bitrate=N/A speed=14.9x    frame=17884 fps=357 q=-0.0 size=N/A time=00:12:25.91 bitrate=N/A speed=14.9x    frame=18071 fps=357 q=-0.0 size=N/A time=00:12:33.71 bitrate=N/A speed=14.9x    frame=18244 fps=357 q=-0.0 size=N/A time=00:12:40.92 bitrate=N/A speed=14.9x    frame=18432 fps=357 q=-0.0 size=N/A time=00:12:48.76 bitrate=N/A speed=14.9x    frame=18621 fps=357 q=-0.0 size=N/A time=00:12:56.65 bitrate=N/A speed=14.9x    frame=18815 fps=357 q=-0.0 size=N/A time=00:13:04.74 bitrate=N/A speed=14.9x    frame=19000 fps=357 q=-0.0 size=N/A time=00:13:12.45 bitrate=N/A speed=14.9x    frame=19204 fps=357 q=-0.0 size=N/A time=00:13:20.96 bitrate=N/A speed=14.9x    frame=19401 fps=358 q=-0.0 size=N/A time=00:13:29.18 bitrate=N/A speed=14.9x    frame=19596 fps=358 q=-0.0 size=N/A time=00:13:37.31 bitrate=N/A speed=14.9x    frame=19774 fps=358 q=-0.0 size=N/A time=00:13:44.74 bitrate=N/A speed=14.9x    frame=19977 fps=358 q=-0.0 size=N/A time=00:13:53.20 bitrate=N/A speed=14.9x    frame=20172 fps=358 q=-0.0 size=N/A time=00:14:01.34 bitrate=N/A speed=14.9x    frame=20358 fps=358 q=-0.0 size=N/A time=00:14:09.09 bitrate=N/A speed=14.9x    frame=20555 fps=358 q=-0.0 size=N/A time=00:14:17.31 bitrate=N/A speed=  15x    frame=20732 fps=358 q=-0.0 size=N/A time=00:14:24.69 bitrate=N/A speed=14.9x    frame=20922 fps=358 q=-0.0 size=N/A time=00:14:32.62 bitrate=N/A speed=  15x    frame=21133 fps=359 q=-0.0 size=N/A time=00:14:41.42 bitrate=N/A speed=  15x    frame=21329 fps=359 q=-0.0 size=N/A time=00:14:49.59 bitrate=N/A speed=  15x    frame=21519 fps=359 q=-0.0 size=N/A time=00:14:57.52 bitrate=N/A speed=  15x    frame=21723 fps=359 q=-0.0 size=N/A time=00:15:06.03 bitrate=N/A speed=  15x    frame=21918 fps=360 q=-0.0 size=N/A time=00:15:14.16 bitrate=N/A speed=  15x    frame=22113 fps=360 q=-0.0 size=N/A time=00:15:22.29 bitrate=N/A speed=  15x    frame=22307 fps=360 q=-0.0 size=N/A time=00:15:30.38 bitrate=N/A speed=  15x    frame=22509 fps=360 q=-0.0 size=N/A time=00:15:38.81 bitrate=N/A speed=  15x    frame=22702 fps=360 q=-0.0 size=N/A time=00:15:46.86 bitrate=N/A speed=  15x    frame=22886 fps=360 q=-0.0 size=N/A time=00:15:54.53 bitrate=N/A speed=  15x    frame=23089 fps=360 q=-0.0 size=N/A time=00:16:03.00 bitrate=N/A speed=  15x    frame=23279 fps=361 q=-0.0 size=N/A time=00:16:10.92 bitrate=N/A speed=  15x    frame=23480 fps=361 q=-0.0 size=N/A time=00:16:19.31 bitrate=N/A speed=  15x    frame=23682 fps=361 q=-0.0 size=N/A time=00:16:27.73 bitrate=N/A speed=15.1x    frame=23874 fps=361 q=-0.0 size=N/A time=00:16:35.74 bitrate=N/A speed=15.1x    frame=24072 fps=361 q=-0.0 size=N/A time=00:16:44.00 bitrate=N/A speed=15.1x    frame=24258 fps=361 q=-0.0 size=N/A time=00:16:51.76 bitrate=N/A speed=15.1x    frame=24461 fps=362 q=-0.0 size=N/A time=00:17:00.22 bitrate=N/A speed=15.1x    frame=24666 fps=362 q=-0.0 size=N/A time=00:17:08.77 bitrate=N/A speed=15.1x    frame=24865 fps=362 q=-0.0 size=N/A time=00:17:17.07 bitrate=N/A speed=15.1x    frame=25066 fps=362 q=-0.0 size=N/A time=00:17:25.46 bitrate=N/A speed=15.1x    frame=25261 fps=362 q=-0.0 size=N/A time=00:17:33.59 bitrate=N/A speed=15.1x    frame=25453 fps=362 q=-0.0 size=N/A time=00:17:41.60 bitrate=N/A speed=15.1x    frame=25648 fps=362 q=-0.0 size=N/A time=00:17:49.73 bitrate=N/A speed=15.1x    frame=25845 fps=363 q=-0.0 size=N/A time=00:17:57.95 bitrate=N/A speed=15.1x    frame=26034 fps=363 q=-0.0 size=N/A time=00:18:05.83 bitrate=N/A speed=15.1x    frame=26233 fps=363 q=-0.0 size=N/A time=00:18:14.13 bitrate=N/A speed=15.1x    frame=26425 fps=363 q=-0.0 size=N/A time=00:18:22.14 bitrate=N/A speed=15.1x    frame=26621 fps=363 q=-0.0 size=N/A time=00:18:30.31 bitrate=N/A speed=15.1x    frame=26807 fps=363 q=-0.0 size=N/A time=00:18:38.07 bitrate=N/A speed=15.1x    frame=26984 fps=363 q=-0.0 size=N/A time=00:18:45.45 bitrate=N/A speed=15.1x    frame=27160 fps=363 q=-0.0 size=N/A time=00:18:52.79 bitrate=N/A speed=15.1x    frame=27339 fps=363 q=-0.0 size=N/A time=00:19:00.26 bitrate=N/A speed=15.1x    frame=27533 fps=363 q=-0.0 size=N/A time=00:19:08.35 bitrate=N/A speed=15.1x    frame=27720 fps=363 q=-0.0 size=N/A time=00:19:16.15 bitrate=N/A speed=15.1x    frame=27910 fps=363 q=-0.0 size=N/A time=00:19:24.07 bitrate=N/A speed=15.1x    frame=28113 fps=363 q=-0.0 size=N/A time=00:19:32.54 bitrate=N/A speed=15.1x    frame=28302 fps=363 q=-0.0 size=N/A time=00:19:40.42 bitrate=N/A speed=15.1x    frame=28488 fps=363 q=-0.0 size=N/A time=00:19:48.18 bitrate=N/A speed=15.1x    frame=28681 fps=363 q=-0.0 size=N/A time=00:19:56.23 bitrate=N/A speed=15.1x    frame=28862 fps=363 q=-0.0 size=N/A time=00:20:03.78 bitrate=N/A speed=15.1x    frame=29028 fps=363 q=-0.0 size=N/A time=00:20:10.70 bitrate=N/A speed=15.1x    frame=29197 fps=362 q=-0.0 size=N/A time=00:20:17.75 bitrate=N/A speed=15.1x    frame=29381 fps=362 q=-0.0 size=N/A time=00:20:25.43 bitrate=N/A speed=15.1x    frame=29542 fps=362 q=-0.0 size=N/A time=00:20:32.14 bitrate=N/A speed=15.1x    frame=29724 fps=362 q=-0.0 size=N/A time=00:20:39.73 bitrate=N/A speed=15.1x    frame=29892 fps=362 q=-0.0 size=N/A time=00:20:46.74 bitrate=N/A speed=15.1x    frame=30050 fps=361 q=-0.0 size=N/A time=00:20:53.33 bitrate=N/A speed=15.1x    frame=30234 fps=361 q=-0.0 size=N/A time=00:21:01.00 bitrate=N/A speed=15.1x    frame=30418 fps=361 q=-0.0 size=N/A time=00:21:08.68 bitrate=N/A speed=15.1x    frame=30610 fps=361 q=-0.0 size=N/A time=00:21:16.69 bitrate=N/A speed=15.1x    frame=30802 fps=361 q=-0.0 size=N/A time=00:21:24.70 bitrate=N/A speed=15.1x    frame=30986 fps=361 q=-0.0 size=N/A time=00:21:32.37 bitrate=N/A speed=15.1x    frame=31183 fps=362 q=-0.0 size=N/A time=00:21:40.59 bitrate=N/A speed=15.1x    frame=31365 fps=361 q=-0.0 size=N/A time=00:21:48.18 bitrate=N/A speed=15.1x    frame=31545 fps=361 q=-0.0 size=N/A time=00:21:55.68 bitrate=N/A speed=15.1x    frame=31744 fps=362 q=-0.0 size=N/A time=00:22:03.98 bitrate=N/A speed=15.1x    frame=31914 fps=361 q=-0.0 size=N/A time=00:22:11.07 bitrate=N/A speed=15.1x    frame=32091 fps=361 q=-0.0 size=N/A time=00:22:18.46 bitrate=N/A speed=15.1x    frame=32283 fps=361 q=-0.0 size=N/A time=00:22:26.47 bitrate=N/A speed=15.1x    frame=32468 fps=361 q=-0.0 size=N/A time=00:22:34.18 bitrate=N/A speed=15.1x    frame=32648 fps=361 q=-0.0 size=N/A time=00:22:41.69 bitrate=N/A speed=15.1x    frame=32794 fps=361 q=-0.0 size=N/A time=00:22:47.78 bitrate=N/A speed=  15x    frame=32957 fps=361 q=-0.0 size=N/A time=00:22:54.58 bitrate=N/A speed=  15x    frame=33140 fps=361 q=-0.0 size=N/A time=00:23:02.21 bitrate=N/A speed=  15x    frame=33309 fps=360 q=-0.0 size=N/A time=00:23:09.26 bitrate=N/A speed=  15x    frame=33470 fps=360 q=-0.0 size=N/A time=00:23:15.97 bitrate=N/A speed=  15x    frame=33609 fps=360 q=-0.0 size=N/A time=00:23:21.77 bitrate=N/A speed=  15x    frame=33746 fps=359 q=-0.0 size=N/A time=00:23:27.48 bitrate=N/A speed=  15x    frame=33875 fps=358 q=-0.0 size=N/A time=00:23:32.86 bitrate=N/A speed=  15x    frame=34024 fps=358 q=-0.0 size=N/A time=00:23:39.08 bitrate=N/A speed=14.9x    frame=34187 fps=358 q=-0.0 size=N/A time=00:23:45.88 bitrate=N/A speed=14.9x    frame=34332 fps=357 q=-0.0 size=N/A time=00:23:51.93 bitrate=N/A speed=14.9x    frame=34457 fps=357 q=-0.0 size=N/A time=00:23:57.14 bitrate=N/A speed=14.9x    frame=34637 fps=357 q=-0.0 size=N/A time=00:24:04.65 bitrate=N/A speed=14.9x    [Parsed_psnr_16 @ 00000210946f7080] PSNR y:48.873531 u:50.316124 v:50.368876 average:49.310189 min:38.001275 max:inf
[out#0/null @ 00000210872a8a00] video:14903KiB audio:271276KiB subtitle:0KiB other streams:0KiB global headers:0KiB muxing overhead: unknown
frame=34683 fps=357 q=-0.0 Lsize=N/A time=00:24:06.57 bitrate=N/A speed=14.9x    
